<svg xmlns="http://www.w3.org/2000/svg" xmlns:xlink="http://www.w3.org/1999/xlink" version="1.1" id="Layer_1" x="0" y="0" width="144" height="72" viewBox="0 0 144 72" enable-background="new 0 0 144 72" xml:space="preserve">
  <g transform="translate(20, 20)">
    <path d="M16.07 6.68c-0.39-0.14-2.51-0.41-3.88-0.56 0.22-1.25 0.31-2.4 0.31-3.62 0-1.38-1.12-2.5-2.5-2.5s-2.5 1.12-2.5 2.5c0 1.88-0.67 2.74-1.62 3.7C5.34 5.48 4.48 5 3.5 5c-1.65 0-3 1.35-3 3v6c0 1.65 1.35 3 3 3 0.76 0 1.44-0.29 1.97-0.75 0.06 0.06 0.12 0.14 0.19 0.19C6.61 17.18 9.32 18 11.5 18c1.88 0 2.61-0.29 3.25-0.55 0.1-0.04 0.21-0.08 0.32-0.12 0.83-0.3 1.58-1.23 1.74-2.2l0.67-5.97C17.64 8.11 17.03 7.03 16.07 6.68zM3.5 15c-0.55 0-1-0.45-1-1V8c0-0.55 0.45-1 1-1s1 0.45 1 1v6C4.5 14.55 4.05 15 3.5 15zM14.83 14.85c-0.04 0.22-0.29 0.54-0.44 0.6 -0.13 0.05-0.25 0.1-0.38 0.15C13.46 15.81 12.99 16 11.5 16c-1.91 0-4.12-0.75-4.63-1.15C6.71 14.73 6.5 14.29 6.5 14V9.02C6.5 8.97 6.55 8.36 7.21 7.71 8.12 6.79 9.5 5.41 9.5 2.5c0-0.28 0.23-0.5 0.5-0.5s0.5 0.23 0.5 0.5c0 1.41-0.15 2.73-0.48 4.29L9.72 8.19l1.32-0.19c0.6 0.05 3.93 0.45 4.33 0.55 0.06 0.03 0.13 0.18 0.11 0.32L14.83 14.85z" fill="#030104"/>
  </g>
  <g transform="translate(92, 20)">
    <path d="M11.41 0.59c-0.78-0.78-2.05-0.78-2.83 0L6 3.17 3.41 0.59c-0.78-0.78-2.05-0.78-2.83 0 -0.78 0.78-0.78 2.05 0 2.83L3.17 6 0.59 8.59c-0.78 0.78-0.78 2.05 0 2.83C0.98 11.81 1.49 12 2 12s1.02-0.19 1.41-0.59L6 8.83l2.59 2.59C8.98 11.81 9.49 12 10 12c0.51 0 1.02-0.19 1.41-0.59 0.78-0.78 0.78-2.05 0-2.83L8.83 6l2.59-2.59C12.2 2.63 12.2 1.37 11.41 0.59z" fill="#030104"/>
  </g>
</svg>
